<?xml version="1.0" encoding="UTF-8" standalone="no"?>
<!-- Created with Inkscape (http://www.inkscape.org/) -->

<svg
   width="36.623539mm"
   height="37.798851mm"
   viewBox="0 0 36.623539 37.798851"
   version="1.1"
   id="svg1236"
   xmlns="http://www.w3.org/2000/svg"
   xmlns:svg="http://www.w3.org/2000/svg">
  <defs
     id="defs1233">
    <clipPath
       clipPathUnits="userSpaceOnUse"
       id="clipPath428">
      <path
         d="M 0,0 H 419.528 V 595.276 H 0 Z"
         id="path426" />
    </clipPath>
  </defs>
  <g
     id="layer1">
    <g
       id="g422"
       transform="matrix(0.35277777,0,0,-0.35277777,-99.680409,67.499812)">
      <g
         id="g424"
         clip-path="url(#clipPath428)">
        <g
           id="g430"
           transform="translate(386.2913,108.664)">
          <path
             d="m 0,0 c -0.15,-0.831 -0.276,-1.667 -0.455,-2.491 -1.701,-7.831 -8.352,-13.684 -16.338,-14.317 -1.355,-0.107 -2.731,0.046 -4.096,0.062 -0.534,0.007 -1.069,-0.035 -1.603,-0.05 -4.819,-0.137 -9.457,0.565 -13.72,2.985 -2.264,1.286 -4.205,2.989 -6.063,4.784 -2.861,2.764 -5.607,5.653 -7.713,9.041 -1.22,1.962 -2.13,4.114 -3.176,6.182 -0.097,0.192 -0.171,0.397 -0.295,0.687 -0.385,-0.836 -0.733,-1.586 -1.076,-2.339 -3.27,-7.182 -6.544,-14.363 -9.798,-21.552 -0.184,-0.409 -0.39,-0.558 -0.834,-0.544 -1.07,0.033 -2.141,0.01 -3.312,0.01 0.408,0.917 0.778,1.763 1.159,2.605 10.47,23.185 20.942,46.369 31.412,69.554 1.608,3.56 3.217,7.119 4.808,10.687 0.169,0.378 0.36,0.535 0.789,0.523 1.188,-0.032 2.376,-0.011 3.652,-0.011 -0.296,-0.664 -0.557,-1.257 -0.826,-1.847 -6.701,-14.727 -13.401,-29.455 -20.118,-44.174 -0.231,-0.508 -0.249,-0.938 -0.09,-1.461 1.608,-5.313 3.148,-10.647 4.803,-15.945 1.033,-3.306 2.586,-6.395 4.389,-9.349 1.123,-1.843 2.571,-3.339 4.743,-3.918 0.568,-0.151 1.164,-0.192 1.821,-0.152 -0.097,0.131 -0.186,0.269 -0.293,0.391 -9.292,10.66 -3.601,27.412 10.247,30.158 C -11.669,21.564 -1.682,14.504 -0.217,4.134 -0.157,3.708 -0.073,3.285 0,2.861 Z"
             style="fill:#231f20;fill-opacity:1;fill-rule:nonzero;stroke:none"
             id="path432" />
        </g>
        <g
           id="g434"
           transform="translate(386.3384,108.6367)">
          <path
             d="m 0,0 c -0.151,-0.832 -0.276,-1.668 -0.456,-2.494 -1.704,-7.84 -8.366,-13.699 -16.367,-14.333 -1.357,-0.107 -2.735,0.046 -4.103,0.062 -0.535,0.007 -1.07,-0.035 -1.605,-0.05 -4.828,-0.137 -9.474,0.565 -13.744,2.988 -2.268,1.288 -4.212,2.992 -6.073,4.79 -2.867,2.767 -5.618,5.659 -7.728,9.051 -1.221,1.964 -2.133,4.119 -3.181,6.189 -0.097,0.192 -0.171,0.397 -0.295,0.688 -0.386,-0.837 -0.734,-1.588 -1.078,-2.342 -3.276,-7.19 -6.555,-14.379 -9.815,-21.576 -0.185,-0.41 -0.391,-0.559 -0.836,-0.545 -1.072,0.033 -2.145,0.01 -3.318,0.01 0.409,0.918 0.78,1.765 1.161,2.608 10.489,23.211 20.979,46.421 31.468,69.633 1.61,3.564 3.222,7.127 4.816,10.698 0.169,0.379 0.36,0.536 0.79,0.525 1.19,-0.033 2.38,-0.011 3.659,-0.011 -0.297,-0.666 -0.559,-1.259 -0.828,-1.85 -6.713,-14.743 -13.424,-29.488 -20.153,-44.224 -0.232,-0.508 -0.249,-0.939 -0.091,-1.462 1.611,-5.319 3.154,-10.659 4.812,-15.963 1.034,-3.31 2.591,-6.402 4.396,-9.36 1.126,-1.845 2.576,-3.343 4.752,-3.922 0.569,-0.151 1.166,-0.193 1.824,-0.152 -0.097,0.131 -0.186,0.269 -0.293,0.391 -9.309,10.672 -3.607,27.443 10.264,30.192 10.333,2.047 20.337,-5.02 21.805,-15.402 C -0.157,3.712 -0.073,3.289 0,2.864 Z"
             style="fill:#ffffff;fill-opacity:1;fill-rule:nonzero;stroke:none"
             id="path436" />
        </g>
        <g
           id="g438"
           transform="translate(386.3384,108.6367)">
          <path
             d="m 0,0 c -0.151,-0.832 -0.276,-1.668 -0.456,-2.494 -1.704,-7.84 -8.366,-13.699 -16.367,-14.333 -1.357,-0.107 -2.735,0.046 -4.103,0.062 -0.535,0.007 -1.07,-0.035 -1.605,-0.05 -4.828,-0.137 -9.474,0.565 -13.744,2.988 -2.268,1.288 -4.212,2.992 -6.073,4.79 -2.867,2.767 -5.618,5.659 -7.728,9.051 -1.221,1.964 -2.133,4.119 -3.181,6.189 -0.097,0.192 -0.171,0.397 -0.295,0.688 -0.386,-0.837 -0.734,-1.588 -1.078,-2.342 -3.276,-7.19 -6.555,-14.379 -9.815,-21.576 -0.185,-0.41 -0.391,-0.559 -0.836,-0.545 -1.072,0.033 -2.145,0.01 -3.318,0.01 0.409,0.918 0.78,1.765 1.161,2.608 10.489,23.211 20.979,46.421 31.468,69.633 1.61,3.564 3.222,7.127 4.816,10.698 0.169,0.379 0.36,0.536 0.79,0.525 1.19,-0.033 2.38,-0.011 3.659,-0.011 -0.297,-0.666 -0.559,-1.259 -0.828,-1.85 -6.713,-14.743 -13.424,-29.488 -20.153,-44.224 -0.232,-0.508 -0.249,-0.939 -0.091,-1.462 1.611,-5.319 3.154,-10.659 4.812,-15.963 1.034,-3.31 2.591,-6.402 4.396,-9.36 1.126,-1.845 2.576,-3.343 4.752,-3.922 0.569,-0.151 1.166,-0.193 1.824,-0.152 -0.097,0.131 -0.186,0.269 -0.293,0.391 -9.309,10.672 -3.607,27.443 10.264,30.192 10.333,2.047 20.337,-5.02 21.805,-15.402 C -0.157,3.712 -0.073,3.289 0,2.864 Z"
             style="fill:none;stroke:#231f20;stroke-width:0.07;stroke-linecap:butt;stroke-linejoin:miter;stroke-miterlimit:10;stroke-dasharray:none;stroke-opacity:1"
             id="path440" />
        </g>
        <g
           id="g442"
           transform="translate(291.9756,91.1222)">
          <path
             d="m 0,0 c 0.776,1.708 1.51,3.329 2.248,4.948 7.672,16.856 15.345,33.712 23.019,50.567 0.455,1 0.327,2.061 0.313,3.104 -0.034,2.758 -0.693,5.429 -1.248,8.104 -0.805,3.883 -1.627,7.768 -2.629,11.603 -0.918,3.516 -2.523,6.758 -4.642,9.726 -1.383,1.936 -3.102,3.408 -5.537,3.808 -1.768,0.291 -3.48,0.008 -5.128,-0.664 -0.782,-0.318 -1.012,-1.007 -1.1,-1.773 -0.432,-3.776 -3.486,-6.6 -7.277,-6.605 -2.888,-0.004 -5.188,1.226 -6.514,3.838 -1.336,2.629 -1.05,5.242 0.642,7.652 1.399,1.993 3.436,2.868 5.799,3.076 5.687,0.501 11.219,-0.131 16.504,-2.378 6.11,-2.599 10.54,-7.026 13.721,-12.781 1.743,-3.154 3.009,-6.512 4.237,-9.887 0.061,-0.166 0.128,-0.331 0.225,-0.581 0.198,0.415 0.368,0.76 0.528,1.111 1.512,3.32 3.031,6.638 4.524,9.966 0.184,0.411 0.402,0.549 0.844,0.535 1.066,-0.034 2.134,-0.011 3.299,-0.011 -0.194,-0.442 -0.347,-0.8 -0.507,-1.155 C 30.25,57.678 19.18,33.153 8.108,8.628 6.892,5.935 5.662,3.249 4.468,0.547 4.275,0.109 4.041,-0.025 3.578,-0.011 2.416,0.023 1.251,0 0,0"
             style="fill:#231f20;fill-opacity:1;fill-rule:nonzero;stroke:none"
             id="path444" />
        </g>
        <g
           id="g446"
           transform="translate(291.9502,91.0751)">
          <path
             d="m 0,0 c 0.777,1.71 1.514,3.332 2.253,4.953 7.691,16.872 15.381,33.744 23.073,50.616 0.456,1.001 0.327,2.063 0.314,3.106 -0.035,2.761 -0.695,5.434 -1.251,8.113 -0.807,3.886 -1.631,7.775 -2.635,11.614 -0.92,3.519 -2.53,6.764 -4.654,9.735 -1.386,1.938 -3.109,3.412 -5.549,3.812 C 9.779,92.24 8.063,91.957 6.411,91.284 5.627,90.965 5.396,90.276 5.309,89.51 4.875,85.73 1.815,82.903 -1.985,82.898 c -2.896,-0.004 -5.201,1.227 -6.53,3.841 -1.338,2.633 -1.052,5.247 0.644,7.66 1.402,1.995 3.444,2.871 5.812,3.079 5.7,0.502 11.246,-0.131 16.543,-2.381 6.124,-2.601 10.564,-7.032 13.753,-12.793 1.747,-3.157 3.015,-6.518 4.247,-9.896 0.06,-0.167 0.128,-0.331 0.225,-0.582 0.198,0.416 0.369,0.761 0.529,1.113 1.516,3.323 3.039,6.643 4.535,9.975 0.184,0.411 0.403,0.549 0.846,0.536 1.068,-0.034 2.138,-0.012 3.307,-0.012 -0.195,-0.442 -0.348,-0.8 -0.509,-1.156 C 30.321,57.733 19.224,33.185 8.127,8.636 6.909,5.941 5.676,3.252 4.479,0.547 4.285,0.109 4.05,-0.025 3.587,-0.011 2.421,0.023 1.254,0 0,0"
             style="fill:#ffffff;fill-opacity:1;fill-rule:nonzero;stroke:none"
             id="path448" />
        </g>
        <g
           id="g450"
           transform="translate(291.9502,91.0751)">
          <path
             d="m 0,0 c 0.777,1.71 1.514,3.332 2.253,4.953 7.691,16.872 15.381,33.744 23.073,50.616 0.456,1.001 0.327,2.063 0.314,3.106 -0.035,2.761 -0.695,5.434 -1.251,8.113 -0.807,3.886 -1.631,7.775 -2.635,11.614 -0.92,3.519 -2.53,6.764 -4.654,9.735 -1.386,1.938 -3.109,3.412 -5.549,3.812 C 9.779,92.24 8.063,91.957 6.411,91.284 5.627,90.965 5.396,90.276 5.309,89.51 4.875,85.73 1.815,82.903 -1.985,82.898 c -2.896,-0.004 -5.201,1.227 -6.53,3.841 -1.338,2.633 -1.052,5.247 0.644,7.66 1.402,1.995 3.444,2.871 5.812,3.079 5.7,0.502 11.246,-0.131 16.543,-2.381 6.124,-2.601 10.564,-7.032 13.753,-12.793 1.747,-3.157 3.015,-6.518 4.247,-9.896 0.06,-0.167 0.128,-0.331 0.225,-0.582 0.198,0.416 0.369,0.761 0.529,1.113 1.516,3.323 3.039,6.643 4.535,9.975 0.184,0.411 0.403,0.549 0.846,0.536 1.068,-0.034 2.138,-0.012 3.307,-0.012 -0.195,-0.442 -0.348,-0.8 -0.509,-1.156 C 30.321,57.733 19.224,33.185 8.127,8.636 6.909,5.941 5.676,3.252 4.479,0.547 4.285,0.109 4.05,-0.025 3.587,-0.011 2.421,0.023 1.254,0 0,0"
             style="fill:none;stroke:#231f20;stroke-width:0.07;stroke-linecap:butt;stroke-linejoin:miter;stroke-miterlimit:10;stroke-dasharray:none;stroke-opacity:1"
             id="path452" />
        </g>
        <g
           id="g454"
           transform="translate(350.1587,167.6432)">
          <path
             d="m 0,0 c -0.932,-2.066 -1.81,-4.015 -2.69,-5.964 -9.878,-21.884 -19.757,-43.767 -29.636,-65.65 -1.68,-3.722 -3.372,-7.439 -5.032,-11.171 -0.204,-0.457 -0.452,-0.595 -0.932,-0.584 -1.327,0.032 -2.656,0.011 -4.064,0.011 0.113,0.281 0.191,0.498 0.286,0.708 11.675,25.858 23.352,51.714 35.028,77.572 0.686,1.518 1.378,3.033 2.042,4.56 0.163,0.374 0.35,0.54 0.786,0.53 C -2.845,-0.02 -1.476,0 0,0"
             style="fill:#231f20;fill-opacity:1;fill-rule:nonzero;stroke:none"
             id="path456" />
        </g>
        <g
           id="g458"
           transform="translate(350.2017,167.6903)">
          <path
             d="m 0,0 c -0.934,-2.068 -1.815,-4.02 -2.697,-5.971 -9.905,-21.908 -19.81,-43.816 -29.714,-65.724 -1.686,-3.726 -3.382,-7.448 -5.047,-11.183 -0.204,-0.458 -0.453,-0.596 -0.933,-0.585 -1.331,0.032 -2.663,0.011 -4.075,0.011 0.113,0.281 0.191,0.498 0.286,0.709 11.707,25.886 23.415,51.772 35.122,77.659 0.687,1.52 1.381,3.036 2.047,4.565 0.163,0.375 0.351,0.541 0.788,0.531 C -2.852,-0.02 -1.48,0 0,0"
             style="fill:#ffffff;fill-opacity:1;fill-rule:nonzero;stroke:none"
             id="path460" />
        </g>
        <g
           id="g462"
           transform="translate(350.2017,167.6903)">
          <path
             d="m 0,0 c -0.934,-2.068 -1.815,-4.02 -2.697,-5.971 -9.905,-21.908 -19.81,-43.816 -29.714,-65.724 -1.686,-3.726 -3.382,-7.448 -5.047,-11.183 -0.204,-0.458 -0.453,-0.596 -0.933,-0.585 -1.331,0.032 -2.663,0.011 -4.075,0.011 0.113,0.281 0.191,0.498 0.286,0.709 11.707,25.886 23.415,51.772 35.122,77.659 0.687,1.52 1.381,3.036 2.047,4.565 0.163,0.375 0.351,0.541 0.788,0.531 C -2.852,-0.02 -1.48,0 0,0"
             style="fill:none;stroke:#231f20;stroke-width:0.07;stroke-linecap:butt;stroke-linejoin:miter;stroke-miterlimit:10;stroke-dasharray:none;stroke-opacity:1"
             id="path464" />
        </g>
        <g
           id="g466"
           transform="translate(348.0753,191.2466)">
          <path
             d="m 0,0 c -0.367,-0.82 -0.687,-1.538 -1.011,-2.256 -12.056,-26.706 -24.117,-53.41 -36.149,-80.127 -0.348,-0.772 -0.732,-1.057 -1.574,-0.996 -1.178,0.085 -2.366,0.021 -3.634,0.021 0.31,0.7 0.576,1.314 0.851,1.924 10.476,23.2 20.953,46.399 31.429,69.598 1.706,3.776 3.417,7.549 5.104,11.334 0.176,0.393 0.384,0.519 0.8,0.511 C -2.835,-0.015 -1.486,0 0,0"
             style="fill:#231f20;fill-opacity:1;fill-rule:nonzero;stroke:none"
             id="path468" />
        </g>
        <g
           id="g470"
           transform="translate(348.1183,191.2937)">
          <path
             d="m 0,0 c -0.368,-0.821 -0.689,-1.54 -1.014,-2.258 -12.089,-26.736 -24.182,-53.471 -36.247,-80.218 -0.349,-0.773 -0.734,-1.058 -1.578,-0.997 -1.181,0.085 -2.373,0.021 -3.644,0.021 0.31,0.701 0.577,1.316 0.853,1.926 10.504,23.226 21.01,46.451 31.515,69.677 1.71,3.78 3.426,7.558 5.118,11.346 0.176,0.394 0.385,0.52 0.802,0.512 C -2.843,-0.015 -1.49,0 0,0"
             style="fill:#ffffff;fill-opacity:1;fill-rule:nonzero;stroke:none"
             id="path472" />
        </g>
        <g
           id="g474"
           transform="translate(348.1183,191.2937)">
          <path
             d="m 0,0 c -0.368,-0.821 -0.689,-1.54 -1.014,-2.258 -12.089,-26.736 -24.182,-53.471 -36.247,-80.218 -0.349,-0.773 -0.734,-1.058 -1.578,-0.997 -1.181,0.085 -2.373,0.021 -3.644,0.021 0.31,0.701 0.577,1.316 0.853,1.926 10.504,23.226 21.01,46.451 31.515,69.677 1.71,3.78 3.426,7.558 5.118,11.346 0.176,0.394 0.385,0.52 0.802,0.512 C -2.843,-0.015 -1.49,0 0,0"
             style="fill:none;stroke:#231f20;stroke-width:0.07;stroke-linecap:butt;stroke-linejoin:miter;stroke-miterlimit:10;stroke-dasharray:none;stroke-opacity:1"
             id="path476" />
        </g>
        <g
           id="g478"
           transform="translate(346.5364,174.4802)">
          <path
             d="m 0,0 c -0.815,-1.807 -1.58,-3.502 -2.346,-5.197 -9.389,-20.796 -18.778,-41.592 -28.167,-62.388 -2.276,-5.041 -4.557,-10.08 -6.814,-15.129 -0.216,-0.484 -0.456,-0.688 -1.008,-0.659 -1.004,0.054 -2.014,0.015 -3.114,0.015 0.513,1.148 0.987,2.211 1.466,3.272 11.96,26.487 23.923,52.974 35.871,79.466 0.21,0.466 0.44,0.656 0.961,0.633 C -2.143,-0.032 -1.131,0 0,0"
             style="fill:#231f20;fill-opacity:1;fill-rule:nonzero;stroke:none"
             id="path480" />
        </g>
        <g
           id="g482"
           transform="translate(346.5793,174.5273)">
          <path
             d="m 0,0 c -0.818,-1.809 -1.585,-3.506 -2.352,-5.203 -9.415,-20.819 -18.831,-41.639 -28.246,-62.458 -2.282,-5.047 -4.57,-10.091 -6.833,-15.147 -0.217,-0.484 -0.458,-0.689 -1.011,-0.66 -1.007,0.054 -2.019,0.016 -3.123,0.016 0.515,1.149 0.99,2.214 1.47,3.276 11.994,26.517 23.99,53.033 35.972,79.555 0.21,0.467 0.441,0.657 0.963,0.634 C -2.149,-0.032 -1.134,0 0,0"
             style="fill:#ffffff;fill-opacity:1;fill-rule:nonzero;stroke:none"
             id="path484" />
        </g>
        <g
           id="g486"
           transform="translate(346.5793,174.5273)">
          <path
             d="m 0,0 c -0.818,-1.809 -1.585,-3.506 -2.352,-5.203 -9.415,-20.819 -18.831,-41.639 -28.246,-62.458 -2.282,-5.047 -4.57,-10.091 -6.833,-15.147 -0.217,-0.484 -0.458,-0.689 -1.011,-0.66 -1.007,0.054 -2.019,0.016 -3.123,0.016 0.515,1.149 0.99,2.214 1.47,3.276 11.994,26.517 23.99,53.033 35.972,79.555 0.21,0.467 0.441,0.657 0.963,0.634 C -2.149,-0.032 -1.134,0 0,0"
             style="fill:none;stroke:#231f20;stroke-width:0.07;stroke-linecap:butt;stroke-linejoin:miter;stroke-miterlimit:10;stroke-dasharray:none;stroke-opacity:1"
             id="path488" />
        </g>
      </g>
    </g>
  </g>
</svg>
